HIERARCHY
ROOT Hips
{
	OFFSET 0.00 0.00 0.00
	CHANNELS 6 Xposition Yposition Zposition Yrotation Xrotation Zrotation
	JOINT LHipJoint
	{
		OFFSET	0.0000	0.0000	0.0000
		CHANNELS 3 Yrotation Xrotation Zrotation
		JOINT LeftUpLeg
		{
			OFFSET	1.0138	-0.0809	-0.0827
			CHANNELS 3 Yrotation Xrotation Zrotation
			JOINT LeftLeg
			{
				OFFSET	0.4110	-3.9095	0.3245
				CHANNELS 3 Yrotation Xrotation Zrotation
				JOINT LeftFoot
				{
					OFFSET	0.3810	-4.0555	-0.1470
					CHANNELS 3 Yrotation Xrotation Zrotation
					JOINT LeftToeBase
					{
						OFFSET	0.1396	-0.4462	1.3079
						CHANNELS 3 Yrotation Xrotation Zrotation
						End Site
						{
							OFFSET 0.0161 -0.0248 0.1809
						}
					}
				}
			}
		}
	}
	JOINT LowerBack
	{
		OFFSET	0.0000	0.7977	-0.3873
		CHANNELS 3 Yrotation Xrotation Zrotation
		JOINT Spine
		{
			OFFSET	0.0000	1.4131	0.1715
			CHANNELS 3 Yrotation Xrotation Zrotation
			JOINT Spine1
			{
				OFFSET	0.0000	1.4392	-0.1032
				CHANNELS 3 Yrotation Xrotation Zrotation
				JOINT LeftShoulder
				{
					OFFSET	0.2274	1.0382	0.4032
					CHANNELS 3 Yrotation Xrotation Zrotation
					JOINT LeftArm
					{
						OFFSET	1.4730	-0.2267	-0.0231
						CHANNELS 3 Yrotation Xrotation Zrotation
						JOINT LeftForeArm
						{
							OFFSET	1.6131	-1.8059	0.0081
							CHANNELS 3 Yrotation Xrotation Zrotation
							JOINT LeftHand
							{
								OFFSET	1.2197	-1.2423	1.6317
								CHANNELS 3 Yrotation Xrotation Zrotation
								JOINT LThumb
								{
									OFFSET	0.0109	-0.0753	0.4387
									CHANNELS 3 Yrotation Xrotation Zrotation
									End Site
									{
										OFFSET -0.2090 -0.0868 0.2097
									}
								}
								JOINT LeftFingerBase
								{
									OFFSET	0.1071	-0.1567	0.2607
									CHANNELS 3 Yrotation Xrotation Zrotation
									JOINT LeftHandFinger1
									{
										OFFSET	0.1706	-0.2492	0.6830
										CHANNELS 3 Yrotation Xrotation Zrotation
										End Site
										{
											OFFSET 0.0335 -0.1507 0.2071
										}
									}
								}
							}
						}
					}
				}
				JOINT Neck
				{
					OFFSET	0.0000	1.7498	0.2381
					CHANNELS 3 Yrotation Xrotation Zrotation
					JOINT Neck1
					{
						OFFSET	0.0000	0.5043	0.1959
						CHANNELS 3 Yrotation Xrotation Zrotation
						JOINT Head
						{
							OFFSET	0.0000	0.5044	0.1959
							CHANNELS 3 Yrotation Xrotation Zrotation
							End Site
							{
								OFFSET 0.0000 1.4798 -0.0693
							}
						}
					}
				}
				JOINT RightShoulder
				{
					OFFSET	-0.2274	1.0382	0.4032
					CHANNELS 3 Yrotation Xrotation Zrotation
					JOINT RightArm
					{
						OFFSET	-1.4730	-0.2267	-0.0231
						CHANNELS 3 Yrotation Xrotation Zrotation
						JOINT RightForeArm
						{
							OFFSET	-1.6131	-1.8059	0.0081
							CHANNELS 3 Yrotation Xrotation Zrotation
							JOINT RightHand
							{
								OFFSET	-1.2197	-1.2423	1.6317
								CHANNELS 3 Yrotation Xrotation Zrotation
								JOINT RThumb
								{
									OFFSET	-0.0109	-0.0753	0.4387
									CHANNELS 3 Yrotation Xrotation Zrotation
									End Site
									{
										OFFSET 0.2090 -0.0868 0.2097
									}
								}
								JOINT RightFingerBase
								{
									OFFSET	-0.1071	-0.1567	0.2607
									CHANNELS 3 Yrotation Xrotation Zrotation
									JOINT RightHandFinger1
									{
										OFFSET	-0.1706	-0.2492	0.6830
										CHANNELS 3 Yrotation Xrotation Zrotation
										End Site
										{
											OFFSET -0.0335 -0.1507 0.2071
										}
									}
								}
							}
						}
					}
				}
			}
		}
	}
	JOINT RHipJoint
	{
		OFFSET	0.0000	0.0000	0.0000
		CHANNELS 3 Yrotation Xrotation Zrotation
		JOINT RightUpLeg
		{
			OFFSET	-1.0138	-0.0809	-0.0827
			CHANNELS 3 Yrotation Xrotation Zrotation
			JOINT RightLeg
			{
				OFFSET	-0.4110	-3.9095	0.3245
				CHANNELS 3 Yrotation Xrotation Zrotation
				JOINT RightFoot
				{
					OFFSET	-0.3810	-4.0555	-0.1470
					CHANNELS 3 Yrotation Xrotation Zrotation
					JOINT RightToeBase
					{
						OFFSET	-0.1396	-0.4462	1.3079
						CHANNELS 3 Yrotation Xrotation Zrotation
						End Site
						{
							OFFSET -0.0161 -0.0248 0.1809
						}
					}
				}
			}
		}
	}
}
MOTION
Frames: 14
Frame Time: 0.0333333
-0.2797 7.5621 0.0262 71.5987 18.6999 -6.4336 0.0000 -0.0000 0.0000 26.4053 -28.8101 -11.5351 160.1366 62.6852 153.5093 -0.1566 -11.1990 12.6702 0.0000 -9.6514 -0.0000 0.0000 -0.0000 0.0000 -4.9461 5.3305 3.4762 -8.9850 10.8868 6.3095 -11.9780 0.4259 -2.3882 7.2709 24.4724 -17.3335 -34.3778 -31.3059 8.2619 15.8605 4.9873 59.7791 12.8471 -3.3650 -1.0157 -8.6822 17.5485 -12.2322 0.6076 -12.2864 3.0007 -6.8487 -1.1268 -2.1605 -6.8846 -1.2918 -1.9407 -41.5049 -9.4860 30.0258 5.1103 0.4748 8.0020 2.2637 10.5952 2.3494 13.9816 -14.0016 0.1092 17.4851 22.3296 -10.1900 -20.8482 3.1051 -9.1771 33.0727 25.9067 36.1504 17.6204 5.5380 11.5429 0.0000 -0.0000 0.0000 -9.2014 -42.1960 20.0534 6.6537 52.4513 10.6247 6.0112 -26.3567 -18.6579 0.0000 -9.3478 -0.0000 
-0.3756 7.5781 0.0103 71.6572 18.5789 -6.0187 0.0000 -0.0000 0.0000 22.7642 -49.3837 -13.5860 164.3326 60.6699 157.4411 -1.2866 -13.7278 11.2045 0.0000 -9.9250 -0.0000 0.0000 -0.0000 0.0000 -3.6571 5.2379 3.1076 -7.0103 10.6047 5.3701 -11.7272 0.4601 -2.0217 6.9305 22.1441 -23.4113 -6.1038 -5.6217 -1.6135 -2.5388 8.2912 56.5296 12.8863 -3.3147 -0.9500 -8.7447 17.5903 -12.2940 0.5617 -12.2272 2.9664 -7.5735 -1.0323 -2.0691 -7.6112 -1.1630 -1.8442 -42.7007 -8.4626 28.7897 6.7233 0.3510 7.8325 11.4147 5.4067 -2.5621 16.9267 -16.9362 -0.7323 16.1225 20.0471 -4.9787 -20.0514 2.5165 -8.1487 31.3005 25.5892 34.3732 16.0327 4.3165 10.2013 0.0000 -0.0000 0.0000 -5.3761 -30.4758 14.8193 7.5141 49.3229 8.6746 7.2903 -35.4234 -16.6957 0.0000 -9.3478 -0.0000 
-0.4502 7.6656 -0.0327 72.5292 18.7753 -4.0036 0.0000 -0.0000 0.0000 19.0112 -64.6859 -15.0622 157.8523 69.6276 151.4059 0.3159 -14.4744 8.3569 -0.0000 -8.7734 0.0000 0.0000 -0.0000 0.0000 -2.6406 4.7419 2.2761 -5.5914 9.4607 2.5464 -11.4428 0.5063 -1.4010 10.4994 24.0571 -25.5880 8.8510 10.9314 -1.2168 -18.4237 9.1002 55.6863 12.6255 -3.5962 -1.3338 -8.3692 17.3559 -11.9242 0.8330 -12.5778 3.1687 -8.4069 -0.8260 -1.6201 -8.4393 -0.8653 -1.3917 -44.2288 -5.7995 27.9341 7.1988 0.3869 5.7899 18.0610 2.6045 -6.5454 21.1663 -20.9211 -2.1861 15.7992 19.2006 1.7451 -18.3855 1.2290 -5.9981 27.3763 24.7336 30.4491 12.7275 1.5725 7.4418 0.0000 -0.0000 0.0000 -5.2486 -14.0351 9.1805 8.0850 35.7015 4.5556 8.3170 -38.6306 -13.0372 0.0000 -9.3478 -0.0000 
-0.4471 7.7395 -0.1002 74.2332 19.7242 0.1141 0.0000 -0.0000 0.0000 20.5340 -72.9781 -21.3993 96.9566 83.2971 91.4706 2.1700 -14.4666 11.1610 0.0000 -8.7714 -0.0000 0.0000 -0.0000 0.0000 -1.6133 4.2085 0.8477 -4.2045 8.3397 -0.5581 -12.1079 0.5461 -0.7802 16.6420 26.2612 -23.3267 15.5469 17.8278 0.3216 -26.2130 13.4510 51.0199 12.6718 -3.5783 -1.2979 -8.4118 17.3710 -11.9651 0.8053 -12.5420 3.1481 -9.3552 -1.0290 -0.9013 -9.3794 -0.9553 -0.6572 -46.2166 -3.3679 27.3605 5.7372 0.5182 3.3763 21.8933 0.2969 -10.1524 25.9254 -25.0248 -4.1275 13.8226 17.1874 3.4079 -16.1886 -0.6326 -3.1191 21.9838 23.1677 25.0773 8.3909 -2.4565 3.9026 0.0000 -0.0000 0.0000 -9.4128 -0.3599 2.3882 7.2488 23.7845 -0.5136 7.0722 -27.3062 -6.2073 -0.0000 -21.4457 0.0000 
-0.4342 7.8028 -0.1300 76.3659 20.7191 2.2636 0.0000 -0.0000 0.0000 15.3503 -74.9455 -20.0365 14.5867 65.0346 11.3655 4.6706 -14.8311 6.1419 -0.0000 -7.8054 0.0000 0.0000 -0.0000 0.0000 -0.5266 3.9640 0.1341 -2.5488 7.8813 -1.6798 -13.5144 0.5742 -0.4948 21.9941 25.8654 -19.3411 17.9053 20.1038 1.0449 -28.2384 25.7392 39.6915 14.0679 -2.1704 0.6813 -10.3680 18.5386 -13.8946 -0.5997 -10.7505 2.0923 -10.1858 -1.7295 -0.3274 -10.2051 -1.5948 -0.0646 -47.9526 -2.6759 26.8107 3.0973 0.5515 1.8336 23.4812 -2.4570 -13.1993 29.9484 -28.1752 -5.9954 7.9748 11.2622 -4.1808 -14.0344 -2.6642 -0.2290 16.2349 20.9427 19.3904 4.0877 -6.9545 0.5047 0.0000 -0.0000 0.0000 -14.6950 10.5146 -3.2283 9.1421 11.6190 -2.7574 7.1509 0.8535 2.3008 -27.7076 -63.7528 67.3099 
-0.4643 7.8378 -0.1199 76.8657 21.3575 0.8955 0.0000 -0.0000 0.0000 5.3759 -69.1820 -10.6648 6.6494 36.5898 6.0041 0.2309 -11.8463 1.4340 0.0000 -9.3006 0.0000 0.0000 -0.0000 0.0000 0.0609 4.0093 0.1070 -1.3465 8.0135 -0.4057 -14.7584 0.5652 -0.6563 22.9933 23.5968 -17.4409 19.0133 21.1418 1.4152 -31.4641 43.5134 25.4817 17.1747 0.6140 4.9438 -14.6300 20.8114 -18.1281 -3.6380 -7.0731 -0.2528 -10.5208 -2.2994 -0.1611 -10.5365 -2.1880 0.1042 -48.4734 -3.5586 26.3201 1.1983 0.5450 1.5605 22.7307 -4.7040 -13.7858 31.9369 -29.6241 -6.9874 1.2284 1.1851 -17.0536 -12.4570 -4.2910 1.9353 10.7976 18.2087 14.0704 0.7048 -10.8460 -2.0667 0.0000 -0.0000 0.0000 -10.1972 13.1528 -1.5497 8.9347 19.7537 -4.9925 3.2584 7.8319 5.8055 0.0000 -6.1114 -0.0000 
-0.5114 7.7983 -0.1049 77.5051 20.7555 -0.0367 0.0000 -0.0000 0.0000 3.7634 -59.9014 -9.1347 -5.4713 18.5006 1.2513 0.9380 -10.0093 -4.1392 -0.0000 -13.5799 -0.0000 0.0000 -0.0000 0.0000 -0.2161 4.1669 0.4398 -1.8835 8.3512 1.3944 -15.4143 0.5098 -1.2090 20.0380 21.3632 -18.1168 17.9160 20.1139 1.0484 -35.6508 56.6566 12.6300 20.5493 3.1121 9.3458 -19.1025 22.7982 -22.6018 -6.8060 -3.5270 -2.7755 -10.1786 -2.2128 -0.3282 -10.1896 -2.1650 -0.0764 -47.6307 -4.9061 26.1250 0.6953 0.5702 1.9808 19.6610 -4.1863 -10.3260 31.5847 -29.3726 -6.8085 -2.2690 -7.2228 -26.8374 -11.6629 -5.1506 3.0352 5.5722 14.8619 9.0196 -1.4976 -13.5454 -3.6839 0.0000 -0.0000 0.0000 -3.6517 9.6918 1.5533 4.0887 41.5011 -4.6080 -0.5691 3.6415 3.8445 -0.0000 -7.0040 0.0000 
-0.4909 7.7299 -0.1038 79.3285 19.8356 0.3221 0.0000 -0.0000 0.0000 7.3060 -59.2974 -14.5446 0.6073 32.3367 1.9480 0.3717 -4.7425 7.0379 0.0000 -14.3673 0.0000 0.0000 -0.0000 0.0000 -1.4263 4.3408 0.9079 -4.4254 8.7364 2.1036 -15.6525 0.4043 -2.2061 15.7550 18.6298 -18.9992 12.4467 14.7078 -0.4886 -29.8105 60.0619 8.1955 22.2289 4.1980 11.4909 -21.2967 23.6418 -24.8054 -8.3616 -1.8929 -4.0390 -9.3464 -1.7763 -0.6508 -9.3563 -1.7788 -0.4103 -46.1416 -5.9887 26.6154 0.6525 0.5933 2.3726 15.9075 -0.1322 -4.2891 28.9391 -27.4124 -5.5087 -3.0528 -8.0810 -29.1535 -11.5244 -5.2979 3.2222 0.7407 11.0340 4.3934 -2.7053 -15.0796 -4.5489 0.0000 -0.0000 0.0000 -1.2787 2.5665 2.0273 -13.8588 63.7851 -15.0680 -0.6429 3.4753 2.1732 -0.0000 -7.3353 0.0001 
-0.5358 7.6693 -0.1189 80.6182 19.4568 0.9583 0.0000 -0.0000 0.0000 12.3680 -55.5136 -18.1972 -1.5202 44.4192 -4.1294 -0.7433 -7.0501 12.8937 -0.0000 -9.8296 0.0000 0.0000 -0.0000 0.0000 -3.3137 4.6385 0.8818 -7.8652 9.3606 1.7973 -15.6542 0.2735 -3.4540 12.0821 14.0387 -17.6178 2.6688 4.1574 -1.9059 -13.7631 55.9434 10.1510 22.2417 4.2283 11.5347 -21.3343 23.6658 -24.8433 -8.3901 -1.8636 -4.0623 -8.3832 -1.7087 -0.9514 -8.3979 -1.7370 -0.7028 -44.7256 -6.7326 27.9662 0.2037 0.6054 2.6203 12.6535 4.9723 1.5988 23.5504 -23.0273 -3.1201 -1.9240 -2.6534 -26.8570 -11.7663 -5.0299 2.8842 -2.7033 7.8096 1.1106 -3.1180 -15.6145 -4.8412 0.0000 -0.0000 0.0000 0.6952 -9.6902 0.5099 -78.6920 76.5450 -75.1038 -1.0696 -0.2731 -0.1844 -0.0000 -7.4936 0.0000 
-0.6628 7.6047 -0.1124 80.8888 20.1878 0.6951 0.0000 -0.0000 0.0000 12.8429 -50.1913 -18.2674 -3.1917 53.0289 -7.0648 -3.7858 -21.0282 16.9762 0.0000 -9.8296 -0.0000 0.0000 -0.0000 0.0000 -5.2175 5.1275 1.0778 -11.0715 10.3233 1.5796 -15.6760 0.1914 -4.2471 9.0511 7.0380 -13.5864 -9.4404 -9.2495 -1.1144 2.5289 49.6948 10.8065 21.9106 4.0303 11.1234 -20.9106 23.5132 -24.4175 -8.0901 -2.1731 -3.8174 -7.5192 -2.2078 -1.1968 -7.5403 -2.2636 -0.9204 -43.5135 -7.2397 29.3244 -1.0634 0.6250 2.8786 9.2802 8.9149 6.0090 16.0095 -16.0361 -0.4549 1.6465 3.4908 -25.3533 -12.1927 -4.5688 2.2955 -3.9452 6.4538 -0.1012 -2.8303 -15.2406 -4.6375 0.0000 -0.0000 0.0000 5.2706 -29.1126 -0.9708 -146.0910 68.3597 -139.8341 -0.2597 -4.6721 -5.9614 -0.0000 -10.2140 0.0000 
-0.6998 7.5977 -0.1050 81.2170 20.5435 0.0277 0.0000 -0.0000 0.0000 9.6104 -39.1575 -16.9834 -1.1926 52.8376 -3.9566 -6.9518 -31.9535 19.3545 0.0000 -9.8296 -0.0000 0.0000 -0.0000 0.0000 -6.8627 5.4901 1.6011 -13.8211 11.1623 2.7019 -16.0086 0.2210 -3.8818 5.8839 -1.3811 -8.2548 -22.4882 -22.1013 2.6941 15.0560 46.0242 11.2020 21.8811 4.0058 11.0786 -20.8666 23.4942 -24.3732 -8.0584 -2.2059 -3.7916 -6.6864 -2.6130 -1.6926 -6.7169 -2.7366 -1.4019 -42.2139 -7.4737 29.5944 -3.4040 0.6642 2.5378 5.3869 13.1135 8.9067 8.7922 -8.5523 1.2276 7.1724 5.6513 -27.5952 -12.7669 -3.9591 1.5049 -3.1218 7.0887 0.6100 -1.8529 -13.9928 -3.9400 0.0000 -0.0000 0.0000 8.3791 -49.6411 -2.9670 -165.8104 62.9644 -157.5756 1.7902 -10.9690 -9.9984 0.0000 -8.2717 0.0000 
-0.7449 7.6604 -0.0815 81.7184 21.1373 -1.8154 0.0000 -0.0000 0.0000 7.9663 -23.8866 -15.0156 -0.8247 42.8863 -0.6530 -11.0126 -37.2449 21.1596 -0.0000 -9.8296 0.0000 0.0000 -0.0000 0.0000 -8.5004 5.5120 2.4426 -16.3930 11.6301 5.5236 -16.4779 0.3774 -2.4650 3.5439 -8.7305 -3.2626 -37.2147 -33.1294 9.8159 21.8394 45.2617 14.1200 21.9771 4.0612 11.1949 -20.9872 23.5368 -24.4944 -8.1436 -2.1177 -3.8610 -5.6928 -2.2680 -2.5996 -5.7435 -2.5038 -2.3448 -40.5546 -7.6645 28.9883 -6.6595 0.5492 0.3389 1.7155 19.8876 10.9879 4.5749 -3.9323 1.7719 12.5361 2.9701 -33.0949 -13.5150 -3.1870 0.4805 -0.8957 8.9628 2.6493 -0.3030 -12.0652 -2.8127 0.0000 -0.0000 0.0000 3.3264 -68.2835 2.8449 -167.9992 66.8669 -159.4258 2.6860 -15.1158 -11.1764 -0.0000 -6.6673 -0.0000 
-0.6218 7.7670 -0.0673 81.4729 20.6749 -4.1486 0.0000 -0.0000 0.0000 7.9835 -1.0178 -13.4810 -0.4105 20.1434 4.2251 -10.7020 -30.1294 17.5149 0.0000 -19.3260 -0.0000 0.0000 -0.0000 0.0000 -10.2783 5.4538 3.5230 -18.9205 12.0878 8.7304 -16.4030 0.5817 -0.8373 5.0616 -13.4172 0.1090 -55.1330 -41.7048 21.0174 21.9227 43.5836 19.0337 21.9651 4.0545 11.1806 -20.9723 23.5317 -24.4795 -8.1331 -2.1286 -3.8525 -4.5708 -1.3252 -3.4442 -4.6513 -1.6639 -3.2734 -38.4986 -8.1722 28.4475 -9.8563 -0.0711 -3.9687 -1.1074 28.5541 12.8497 4.6244 -3.9873 1.7674 14.9608 -0.8947 -37.8297 -14.4246 -2.2845 -0.7528 2.2485 11.4456 5.6033 1.6819 -9.6900 -1.3342 0.0000 -0.0000 0.0000 -16.7989 -78.4532 24.9817 -148.7932 79.5136 -140.6990 3.1902 -16.5336 -12.4756 0.0000 -6.8006 -0.0000 
-0.4903 7.7797 -0.0674 79.7906 20.4638 -7.1625 0.0000 -0.0000 0.0000 10.3559 19.0613 -11.2653 -5.9095 -1.2230 6.4146 -5.4886 -1.9165 13.8025 1.8336 -48.8707 -10.4832 0.0000 -0.0000 0.0000 -11.7284 5.4746 4.6405 -21.1969 12.3307 10.3445 -15.4418 0.7043 0.2903 12.7329 -15.7276 1.2267 -74.6533 -46.3952 34.8710 16.8970 36.1848 24.7651 21.9256 4.0349 11.1364 -20.9255 23.5166 -24.4325 -8.1003 -2.1625 -3.8257 -3.6158 -0.2671 -3.7411 -3.7214 -0.6521 -3.6749 -36.4104 -8.7739 28.3292 -11.6260 -1.0522 -8.8471 -3.5262 36.1325 14.3867 7.5509 -7.2065 1.4226 13.6113 -1.8766 -38.6744 -15.4412 -1.3209 -2.1165 6.1450 14.2398 9.3488 3.9820 -7.0713 0.4229 0.0000 -0.0000 0.0000 -49.7808 -79.6902 61.6758 -10.7765 79.6235 -3.4769 1.9107 -15.9513 -8.6010 -0.0000 -4.2072 -0.0000 
